<svg xmlns="http://www.w3.org/2000/svg" version="1.1" xmlns:xlink="http://www.w3.org/1999/xlink" xmlns:svgjs="http://svgjs.com/svgjs" width="400" height="400" preserveAspectRatio="none" viewBox="0 0 400 400"><g mask="url(&quot;#SvgjsMask1003&quot;)" fill="none"><path d="M-43.97 212.61C-12.67 213.68 13.46 262.61 70.89 262.61 128.32 262.61 111.36 199.94 185.75 212.61 260.14 225.28 246.76 417.18 300.61 458.43" stroke="rgba(0, 115, 243, 0.58)" stroke-width="2"></path><path d="M-64.11 251.38C-19.11 245.71-8.76 131.61 81.67 143.38 172.1 155.15 157.98 414.07 227.45 470.59" stroke="rgba(0, 115, 243, 0.58)" stroke-width="2"></path><path d="M-7.95 126.16C38.42 129.77 37.51 190.52 151.42 222.16 265.33 253.8 244.14 441.49 310.79 475.5" stroke="rgba(0, 115, 243, 0.58)" stroke-width="2"></path><path d="M-62.12 44.64C-29.4 45.61-1.61 94.64 58.9 94.64 119.42 94.64 82.66 1.66 179.93 44.64 277.2 87.62 236.6 362.18 300.95 444.43" stroke="rgba(0, 115, 243, 0.58)" stroke-width="2"></path><path d="M-31.66 62.3C32.85 75.58 47.46 196.45 160.71 242.3 273.96 288.15 211.16 419.85 256.89 456.75" stroke="rgba(0, 115, 243, 0.58)" stroke-width="2"></path></g><defs><mask id="SvgjsMask1003"><rect width="400" height="400" fill="#ffffff"></rect></mask></defs></svg>