<svg xmlns="http://www.w3.org/2000/svg" version="1.1" xmlns:xlink="http://www.w3.org/1999/xlink" xmlns:svgjs="http://svgjs.com/svgjs" width="1440" height="560" preserveAspectRatio="none" viewBox="0 0 1440 560"><g mask="url(&quot;#SvgjsMask1214&quot;)" fill="none"><path d="M 733,-15.541538026334877 C 689.8,40.46 439.4,152.46 517,264.4584619736651 C 594.6,376.46 1165,432.46 1121,544.4584619736652 C 1077,656.46 303,821.35 297,824.4584619736652 C 291,827.57 932.2,612.89 1091,560" stroke="rgba(0, 98, 201, 0.58)" stroke-width="2"></path><path d="M 1052,-51.755733346903924 C 961,4.24 631.4,116.24 597,228.24426665309608 C 562.6,340.24 881.6,396.24 880,508.2442666530961 C 878.4,620.24 576.8,777.89 589,788.244266653096 C 601.2,798.6 870.6,605.65 941,560" stroke="rgba(0, 98, 201, 0.58)" stroke-width="2"></path><path d="M 1053,-256.45897229872975 C 938.6,-200.46 511.2,-88.46 481,23.541027701270252 C 450.8,135.54 915.6,191.54 902,303.54102770127025 C 888.4,415.54 443.2,532.25 413,583.5410277012702 C 382.8,634.83 683.4,564.71 751,560" stroke="rgba(0, 98, 201, 0.58)" stroke-width="2"></path></g><defs><mask id="SvgjsMask1214"><rect width="1440" height="560" fill="#ffffff"></rect></mask></defs></svg>